<svg width="16" height="16" version="1.1" xmlns="http://www.w3.org/2000/svg"><path d="m8 2a1 1 0 0 0-1 1c0 0.047 0.021344 0.086813 0.027344 0.13281a3.992 3.992 0 0 0-3.0273 3.8672v2l-1 1v1h10v-1l-1-1v-1a4 4 0 0 1-0.16602-0.0039062 4 4 0 0 1-0.39844-0.035156 4 4 0 0 1-0.39258-0.076172 4 4 0 0 1-0.38281-0.11523 4 4 0 0 1-0.36914-0.15234 4 4 0 0 1-0.35352-0.18945 4 4 0 0 1-0.33203-0.22266 4 4 0 0 1-0.30664-0.25586 4 4 0 0 1-0.28125-0.2832 4 4 0 0 1-0.25195-0.3125 4 4 0 0 1-0.21875-0.33398 4 4 0 0 1-0.18359-0.35547 4 4 0 0 1-0.14844-0.37109 4 4 0 0 1-0.10938-0.38477 4 4 0 0 1-0.072266-0.39258 4 4 0 0 1-0.021484-0.26172 3 3 0 0 1-0.0058594-0.080078 4 4 0 0 1-0.0039063-0.056641 4 4 0 0 1 0-0.041016 3 3 0 0 1-0.0019531-0.076172c0-0.00507 0.0039063-0.0086099 0.0039062-0.013672a4 4 0 0 1 0.0058594-0.26953 4 4 0 0 1 0.048828-0.39648 4 4 0 0 1 0.087891-0.39062 4 4 0 0 1 0.125-0.37891 4 4 0 0 1 0.16406-0.36523 4 4 0 0 1 0.03125-0.054688 0.978 0.978 0 0 0-0.4668-0.13086zm-2 10a2 2 0 0 0 4 0h-4z"/><path d="m12 1a3 3 0 1 0 0 6 3 3 0 0 0 0-6z" fill="#ff4402" fill-rule="evenodd"/></svg>
