<?xml version="1.0" encoding="UTF-8" standalone="no"?>
<svg xmlns:rdf="http://www.w3.org/1999/02/22-rdf-syntax-ns#" xmlns="http://www.w3.org/2000/svg" height="16" width="16" version="1.1" xmlns:cc="http://creativecommons.org/ns#" xmlns:dc="http://purl.org/dc/elements/1.1/">
 <path d="m8 2c-0.5523 0-1 0.4477-1 1 0 0.0472 0.021 0.0873 0.0273 0.1328-1.7366 0.4362-3.0273 1.9953-3.0273 3.8672v2l-1 1v1h10v-1l-1-1v-2c0-0.0613-0.013-0.119-0.016-0.1797-0.309 0.1082-0.637 0.1797-0.984 0.1797-1.6575 0-3-1.3431-3-3 0-0.6697 0.2268-1.282 0.5977-1.7812-0.1685-0.1292-0.3691-0.2188-0.5977-0.2188zm-2 10c0 1.105 0.8954 2 2 2s2-0.895 2-2h-4z" fill="#fff"/>
 <path d="m11 2c-1.105 0-2 0.8954-2 2s0.895 2 2 2 2-0.8954 2-2-0.895-2-2-2z" fill-rule="evenodd" fill="#ff4402"/>
</svg>
